<?xml version="1.0" standalone="no"?>
<!DOCTYPE svg PUBLIC "-//W3C//DTD SVG 20010904//EN"
 "http://www.w3.org/TR/2001/REC-SVG-20010904/DTD/svg10.dtd">
<svg version="1.0" xmlns="http://www.w3.org/2000/svg"
 width="1511.000000pt" height="1511.000000pt" viewBox="0 0 1511.000000 1511.000000"
 preserveAspectRatio="xMidYMid meet">
<metadata>
Created by potrace 1.14, written by Peter Selinger 2001-2017
</metadata>
<g transform="translate(0.000000,1511.000000) scale(0.100000,-0.100000)"
fill="#000000" stroke="none">
<path d="M7424 15055 c-60 -31 -211 -111 -336 -178 l-228 -122 0 -637 c0 -351
2 -638 4 -638 3 0 101 43 218 96 117 53 273 123 347 156 l134 59 336 -152
c185 -83 342 -154 349 -156 14 -6 16 277 5 895 l-6 383 -131 70 c-187 100
-526 267 -557 274 -20 5 -53 -7 -135 -50z"/>
<path d="M6830 13153 c-429 -229 -1242 -675 -1855 -1018 -159 -89 -396 -221
-525 -292 -129 -72 -372 -207 -540 -300 -168 -93 -337 -187 -376 -208 l-71
-39 -7 -95 c-3 -53 -6 -139 -6 -191 0 -108 10 -131 66 -155 l34 -14 0 -4343 0
-4344 -45 -22 c-31 -15 -47 -30 -51 -48 -9 -36 2 -354 13 -365 17 -17 3167
-1589 3302 -1649 175 -77 211 -82 285 -46 61 30 96 72 164 197 l42 77 -2 5093
c-1 2802 -5 5636 -8 6299 -6 1180 -7 1206 -27 1267 -30 91 -66 146 -122 187
-48 36 -118 66 -150 66 -9 0 -63 -26 -121 -57z m-1462 -3007 c15 -8 44 -32 64
-53 l37 -38 12 -445 c7 -310 10 -1338 6 -3385 -4 -2662 -6 -2947 -20 -3009
-37 -156 -134 -199 -319 -141 l-58 19 1 3060 c0 3124 6 3913 27 3953 22 40
195 67 250 39z"/>
<path d="M7830 11643 c0 -857 -3 -3740 -6 -6408 l-6 -4850 45 -129 c48 -137
69 -167 146 -217 54 -35 127 -39 193 -10 164 71 1882 920 1923 950 6 5 170 89
365 189 799 407 1124 579 1131 599 4 11 10 98 14 194 l7 174 -64 35 -63 36 -3
4301 -2 4301 70 41 70 42 0 187 0 187 -455 228 c-250 125 -459 227 -464 227
-15 0 -21 -918 -27 -4070 -6 -3155 -14 -4144 -34 -4213 -15 -52 -98 -137 -133
-137 -36 0 -78 58 -90 123 -6 32 -12 1660 -16 4252 l-6 4200 -100 53 c-150 79
-809 412 -816 412 -14 0 -20 -957 -30 -4675 -5 -2167 -13 -4084 -18 -4260 -8
-316 -9 -321 -34 -370 -14 -28 -41 -65 -60 -84 -72 -69 -166 -47 -188 44 -19
79 -28 1170 -33 4270 -3 1733 -9 3627 -12 4210 -5 981 -6 1061 -22 1073 -9 7
-116 63 -237 124 -121 61 -224 114 -230 118 -15 11 -802 410 -809 410 -3 0 -6
-701 -6 -1557z"/>
</g>
</svg>
